# xmcd
#
# Track frame offsets: 
#        150
#        12680
#        30510
#        45340
#        62520
#        79355
#        96320
#        123470
#        134980
#        151365
#        170095
#
# Disc length: 2529 seconds
#
# Revision: 0
# Processed by: cddbd v1.5.2PL0 Copyright (c) Steve Scherf et al.
# Submitted via: ExactAudioCopy v0.99pb5
#
DISCID=9809df0b
DTITLE=The Barnburners With Big Harmonica Bob - Workin' Overtime
DYEAR=2002
DGENRE=Blues
TTITLE0=A Letter To My Girlfriend
TTITLE1=Travelin' South
TTITLE2=Killin' Floor
TTITLE3=Personal Manager
TTITLE4=I Ain't Drunk
TTITLE5=Let Me Love Baby
TTITLE6=Leave My Little Girl Alone
TTITLE7=Just A Little Bit
TTITLE8=Crosscut Saw
TTITLE9=Let The Good Times Roll
TTITLE10=Messin' With The Kid
EXTD=
EXTT0=
EXTT1=
EXTT2=
EXTT3=
EXTT4=
EXTT5=
EXTT6=
EXTT7=
EXTT8=
EXTT9=
EXTT10=
PLAYORDER=
